<svg id="bg" xmlns="http://www.w3.org/2000/svg" xmlns:xlink="http://www.w3.org/1999/xlink" viewBox="0 0 1080 1920"><defs><style>.cls-1{fill:none;}.cls-2{clip-path:url(#clip-path);}.cls-3{fill:#122d8e;}.cls-4{fill:url(#linear-gradient);}.cls-5{fill:#1841dc;}.cls-6{fill:#183dce;}.cls-7{clip-path:url(#clip-path-2);}.cls-8{clip-path:url(#clip-path-3);}.cls-9{fill:#a20e0b;}.cls-10{fill:url(#linear-gradient-2);}.cls-11{fill:#b01413;}.cls-12{fill:#e02d2c;}.cls-13{fill:#d82323;}.cls-14{clip-path:url(#clip-path-4);}.cls-15{clip-path:url(#clip-path-5);}.cls-16{fill:url(#linear-gradient-3);}</style><clipPath id="clip-path"><rect class="cls-1" x="1265" width="1080" height="1920"/></clipPath><linearGradient id="linear-gradient" x1="1028.77" y1="964" x2="2879.61" y2="964" gradientUnits="userSpaceOnUse"><stop offset="0" stop-color="#1432a0"/><stop offset="0.19" stop-color="#1535ae"/><stop offset="0.71" stop-color="#173ecf"/><stop offset="1" stop-color="#1841dc"/></linearGradient><clipPath id="clip-path-2"><rect class="cls-1" width="1080" height="1920"/></clipPath><clipPath id="clip-path-3"><rect class="cls-1" x="-758.89" width="2597.78" height="1920"/></clipPath><linearGradient id="linear-gradient-2" x1="-222.65" y1="960" x2="1590.42" y2="960" gradientUnits="userSpaceOnUse"><stop offset="0" stop-color="#b01413"/><stop offset="0.03" stop-color="#b21514"/><stop offset="0.66" stop-color="#d32625"/><stop offset="1" stop-color="#e02d2c"/></linearGradient><clipPath id="clip-path-4"><rect class="cls-1" x="-1235" width="1080" height="1920"/></clipPath><clipPath id="clip-path-5"><rect class="cls-1" x="-3640" y="-873.09" width="4384" height="3240.18"/></clipPath><linearGradient id="linear-gradient-3" x1="-2735.05" y1="747" x2="324.69" y2="747" xlink:href="#linear-gradient-2"/></defs><g class="cls-2"><rect class="cls-3" x="481.35" y="-16" width="2651.9" height="1960"/><path class="cls-4" d="M2963.57-16s57.89,298.3-127.86,556.41S2477.49,819,2389.44,833.51s-236.41-12.06-294.3-31.36-281-89.26-435.43,2.41S1532.16,1072,1549.35,1173.34s126.65,350.09,43.42,487.59-477.27,250.5-672,283.07H2575.19s24.12-216.73,138.7-389.21,253.75-273.8,419.37-307.57V-16Z"/><path class="cls-5" d="M711.68-16S979.44,430.65,1287,418.59c0,0,109.46,3,251.49-120s224.41-187.07,341.94-186.35S2059,173.61,2270,201.42,2726,257.42,3045.59-16Z"/><path class="cls-6" d="M539.08-16s250.85,406,634.18,387c0,0,128.23,11.76,298.29-142.93s252.69-176.7,376.93-157.4,133.28,61.51,411,92.27S2733.19,110.27,2887.58-16H539.08Z"/></g><g class="cls-7"><g class="cls-8"><rect class="cls-9" x="-758.89" width="2597.78" height="1920"/><path class="cls-10" d="M1672.66,0s56.72,292.21-125.24,545.06S1196.5,818,1110.25,832.17,878.67,820.36,822,801.45,546.66,714,395.42,803.82s-124.95,262-108.11,361.25S411.37,1508,329.85,1642.71-137.69,1888.1-328.43,1920H1292.21s23.63-212.31,135.88-381.27,248.56-268.21,410.8-301.29V0Z"/><path class="cls-11" d="M264.27,0S450.36,60,648.86,180.55s261.71,197.62,472,195.84S1467.67,290.88,1797.32,0Z"/><path class="cls-12" d="M-533.27,0S-271,437.54,30.33,425.72c0,0,107.22,3,246.35-117.56s219.83-183.25,335-182.55S786.51,185.74,993.28,213,1439.9,267.84,1753,0Z"/><path class="cls-13" d="M-702.34,0S-456.62,397.66-81.11,379.05c0,0,125.61,11.52,292.21-140S458.63,65.94,580.33,84.85s130.56,60.26,402.61,90.39S1447,123.69,1598.23,0H-702.34Z"/><path class="cls-11" d="M1060.54,1920S874.45,1860,676,1739.45s-261.71-197.62-472-195.84S-142.86,1629.12-472.51,1920Z"/><path class="cls-13" d="M52.69,1920s-219-274.35-566.77-213v213Z"/><path class="cls-12" d="M1858.08,1920s-262.3-437.54-563.6-425.72c0,0-107.22-3-246.35,117.56s-219.83,183.25-335,182.55S538.3,1734.26,331.53,1707s-446.62-54.86-759.73,213Z"/><path class="cls-13" d="M2027.15,1920s-245.72-397.66-621.23-379c0,0-125.61-11.52-292.21,140s-247.53,173.1-369.23,154.19-130.56-60.26-402.61-90.39-464,51.55-615.29,175.24H2027.15Z"/></g></g><g class="cls-14"><g class="cls-15"><rect class="cls-9" x="-3640" y="-873.09" width="4384" height="3240.18"/><path class="cls-16" d="M463.48-873.09S559.19-380,252.12,46.75s-592.21,460.6-737.77,484.53-390.81-19.94-486.52-51.84-464.59-147.56-719.82,4-210.86,442.16-182.45,609.66,209.37,578.74,71.78,806.05-789,414.12-1110.9,468h2735s39.88-358.29,229.31-643.43S470.2,1271,744,1215.21V-873.09Z"/><path class="cls-12" d="M776.38,2367.09S333.72,1628.7-174.74,1648.64c0,0-180.95-5-415.74,198.4s-371,309.26-565.28,308.07-295.11-101.47-644-147.44-753.72-92.59-1282.12,359.42Z"/><path class="cls-13" d="M1061.71,2367.09S647,1696,13.32,1727.4c0,0-212-19.44-493.13,236.29s-417.74,292.11-623.11,260.21-220.34-101.69-679.44-152.54-783.13,87-1038.36,295.73H1061.71Z"/></g></g></svg>